<svg width="32" height="32" viewBox="0 0 32 32" fill="none" xmlns="http://www.w3.org/2000/svg">
<g style="mix-blend-mode:luminosity" opacity="0.4">
<path fill-rule="evenodd" clip-rule="evenodd" d="M16.0004 2.66675C12.3791 2.66675 11.9257 2.68186 10.5035 2.74675C9.08394 2.81164 8.11416 3.03741 7.26616 3.36719C6.37727 3.70141 5.57105 4.22586 4.90439 4.90497C4.22636 5.57087 3.70159 6.37652 3.36661 7.26586C3.03861 8.11386 2.81194 9.08453 2.74705 10.5041C2.68305 11.9254 2.66705 12.3779 2.66705 16.0001C2.66705 19.6223 2.68216 20.0747 2.74705 21.497C2.81194 22.9165 3.03772 23.8863 3.3675 24.7343C3.70172 25.6232 4.22616 26.4294 4.90528 27.0961C5.57119 27.7741 6.37684 28.2988 7.26616 28.6339C8.11416 28.9627 9.08394 29.1885 10.5035 29.2534C11.9257 29.3183 12.3791 29.3334 16.0004 29.3334C19.6217 29.3334 20.0751 29.3183 21.4973 29.2534C22.9168 29.1885 23.8866 28.9627 24.7346 28.633C25.6235 28.2987 26.4297 27.7743 27.0964 27.0952C27.7744 26.4293 28.2992 25.6236 28.6342 24.7343C28.9631 23.8863 29.1888 22.9165 29.2537 21.497C29.3186 20.0747 29.3337 19.6214 29.3337 16.0001C29.3337 12.3787 29.3186 11.9254 29.2537 10.5032C29.1888 9.08364 28.9631 8.11386 28.6333 7.26586C28.2985 6.37614 27.7737 5.57014 27.0955 4.90408C26.4296 4.22606 25.6239 3.70129 24.7346 3.3663C23.8866 3.0383 22.9159 2.81164 21.4964 2.74675C20.0751 2.68275 19.6226 2.66675 16.0004 2.66675ZM16.0004 5.06941C19.5604 5.06941 19.9826 5.08275 21.3888 5.14675C22.6884 5.2063 23.3942 5.4223 23.8644 5.6063C24.4866 5.84719 24.9311 6.13697 25.3977 6.60275C25.8644 7.06941 26.1533 7.51386 26.3942 8.13608C26.5773 8.6063 26.7942 9.31208 26.8537 10.6116C26.9177 12.0179 26.9311 12.4401 26.9311 16.0001C26.9311 19.5601 26.9177 19.9823 26.8537 21.3885C26.7942 22.6881 26.5782 23.3939 26.3942 23.8641C26.1808 24.4432 25.8403 24.9672 25.3977 25.3974C24.9676 25.8401 24.4436 26.1806 23.8644 26.3939C23.3942 26.577 22.6884 26.7939 21.3888 26.8534C19.9826 26.9174 19.5613 26.9307 16.0004 26.9307C12.4395 26.9307 12.0182 26.9174 10.6119 26.8534C9.31239 26.7939 8.60661 26.5779 8.13639 26.3939C7.55724 26.1805 7.03328 25.84 6.60305 25.3974C6.16054 24.9671 5.82006 24.4432 5.60661 23.8641C5.4235 23.3939 5.20661 22.6881 5.14705 21.3885C5.08305 19.9823 5.06972 19.5601 5.06972 16.0001C5.06972 12.4401 5.08305 12.0179 5.14705 10.6116C5.20661 9.31208 5.42261 8.6063 5.60661 8.13608C5.8475 7.51386 6.13728 7.06941 6.60305 6.60275C7.03322 6.16012 7.55719 5.81962 8.13639 5.6063C8.60661 5.42319 9.31239 5.2063 10.6119 5.14675C12.0182 5.08275 12.4404 5.06941 16.0004 5.06941Z" fill="white"/>
<path fill-rule="evenodd" clip-rule="evenodd" d="M16.0004 20.449C15.4162 20.449 14.8377 20.3339 14.2979 20.1103C13.7581 19.8867 13.2677 19.559 12.8546 19.1459C12.4415 18.7328 12.1137 18.2424 11.8902 17.7026C11.6666 17.1628 11.5515 16.5843 11.5515 16.0001C11.5515 15.4158 11.6666 14.8373 11.8902 14.2976C12.1137 13.7578 12.4415 13.2674 12.8546 12.8542C13.2677 12.4411 13.7581 12.1134 14.2979 11.8898C14.8377 11.6663 15.4162 11.5512 16.0004 11.5512C17.1803 11.5512 18.3119 12.0199 19.1462 12.8542C19.9806 13.6886 20.4493 14.8202 20.4493 16.0001C20.4493 17.18 19.9806 18.3116 19.1462 19.1459C18.3119 19.9802 17.1803 20.449 16.0004 20.449ZM16.0004 9.14675C14.1828 9.14675 12.4396 9.86879 11.1544 11.154C9.86912 12.4393 9.14707 14.1825 9.14707 16.0001C9.14707 17.8177 9.86912 19.5609 11.1544 20.8461C12.4396 22.1314 14.1828 22.8534 16.0004 22.8534C17.818 22.8534 19.5612 22.1314 20.8464 20.8461C22.1317 19.5609 22.8537 17.8177 22.8537 16.0001C22.8537 14.1825 22.1317 12.4393 20.8464 11.154C19.5612 9.86879 17.818 9.14675 16.0004 9.14675ZM24.8475 9.0223C24.8475 9.45195 24.6768 9.86401 24.373 10.1678C24.0692 10.4716 23.6572 10.6423 23.2275 10.6423C22.7979 10.6423 22.3858 10.4716 22.082 10.1678C21.7782 9.86401 21.6075 9.45195 21.6075 9.0223C21.6075 8.59265 21.7782 8.1806 22.082 7.87679C22.3858 7.57298 22.7979 7.4023 23.2275 7.4023C23.6572 7.4023 24.0692 7.57298 24.373 7.87679C24.6768 8.1806 24.8475 8.59265 24.8475 9.0223Z" fill="white"/>
</g>
</svg>
