<svg width="32" height="32" viewBox="0 0 32 32" fill="none" xmlns="http://www.w3.org/2000/svg">
<g style="mix-blend-mode:luminosity" opacity="0.4">
<path fill-rule="evenodd" clip-rule="evenodd" d="M29.3337 16.0001C29.3337 23.3639 23.3642 29.3334 16.0004 29.3334C8.63656 29.3334 2.66702 23.3639 2.66702 16.0001C2.66702 8.63628 8.63656 2.66675 16.0004 2.66675C23.3642 2.66675 29.3337 8.63628 29.3337 16.0001ZM16.4781 12.51C15.1813 13.0494 12.5894 14.1659 8.70245 15.8593C8.07127 16.1103 7.74063 16.3559 7.71053 16.596C7.65966 17.0018 8.1678 17.1615 8.85976 17.3791C8.95388 17.4087 9.0514 17.4394 9.15138 17.4719C9.83216 17.6932 10.7479 17.9521 11.224 17.9623C11.6558 17.9717 12.1378 17.7936 12.6699 17.4282C16.3016 14.9768 18.1763 13.7377 18.294 13.7109C18.3771 13.6921 18.4921 13.6684 18.5701 13.7377C18.648 13.807 18.6404 13.9382 18.6321 13.9734C18.5818 14.188 16.5871 16.0424 15.5549 17.0021C15.2331 17.3012 15.0049 17.5134 14.9582 17.5619C14.8537 17.6705 14.7471 17.7732 14.6448 17.8719C14.0123 18.4816 13.538 18.9388 14.671 19.6854C15.2155 20.0442 15.6512 20.3409 16.0858 20.6369C16.5605 20.9602 17.034 21.2826 17.6466 21.6842C17.8026 21.7865 17.9517 21.8927 18.0969 21.9962C18.6493 22.3901 19.1456 22.7439 19.7588 22.6875C20.1151 22.6547 20.4831 22.3197 20.67 21.3205C21.1117 18.9591 21.9799 13.8428 22.1806 11.7345C22.1982 11.5498 22.176 11.3134 22.1583 11.2096C22.1405 11.1058 22.1034 10.958 21.9685 10.8485C21.8088 10.7189 21.5622 10.6916 21.4519 10.6934C20.9504 10.7023 20.181 10.9699 16.4781 12.51Z" fill="white"/>
</g>
</svg>
