<svg width="32" height="32" viewBox="0 0 32 32" fill="none" xmlns="http://www.w3.org/2000/svg">
<g style="mix-blend-mode:luminosity" opacity="0.4">
<path d="M29.3337 7.89951C28.3531 8.33405 27.2996 8.62766 26.1921 8.76037C27.3219 8.0839 28.1887 7.01046 28.5974 5.73268C27.5404 6.35983 26.3695 6.81551 25.1234 7.05979C24.1251 5.9981 22.7041 5.33337 21.1303 5.33337C18.1097 5.33337 15.6598 7.78324 15.6598 10.8062C15.6598 11.2337 15.7091 11.6495 15.8007 12.0511C11.2522 11.8221 7.22268 9.64354 4.52383 6.33399C4.05406 7.14435 3.78394 8.0839 3.78394 9.08451C3.78394 10.9824 4.7505 12.6583 6.21736 13.639C5.3201 13.6096 4.47685 13.3641 3.73931 12.9543V13.0247C3.73931 15.6754 5.62427 17.8869 8.12817 18.3895C7.66779 18.514 7.1851 18.5798 6.68714 18.5798C6.33481 18.5798 5.9907 18.5469 5.65716 18.4835C6.3536 20.6562 8.37362 22.2393 10.7683 22.2816C8.89507 23.7497 6.53563 24.6246 3.97302 24.6246C3.53144 24.6246 3.09572 24.5988 2.66705 24.5483C5.08873 26.102 7.96374 27.0064 11.0525 27.0064C21.1174 27.0064 26.6196 18.6702 26.6196 11.4404C26.6196 11.2055 26.6137 10.9683 26.6032 10.7334C27.6719 9.96064 28.5997 8.99878 29.3314 7.90303L29.3337 7.89951Z" fill="white"/>
</g>
</svg>
